<mxfile host="Electron" agent="Mozilla/5.0 (X11; Linux x86_64) AppleWebKit/537.36 (KHTML, like Gecko) draw.io/24.7.8 Chrome/128.0.6613.36 Electron/32.0.1 Safari/537.36" version="24.7.8">
  <diagram name="Página-1" id="oE5SToJG6d0fqBrR_LVp">
    <mxGraphModel dx="54" dy="34" grid="1" gridSize="10" guides="1" tooltips="1" connect="1" arrows="1" fold="1" page="1" pageScale="1" pageWidth="1169" pageHeight="827" math="0" shadow="0">
      <root>
        <mxCell id="0" />
        <mxCell id="1" parent="0" />
        <mxCell id="Xy_Kt93vGEhqBD_L53yG-1" value="Name" style="ellipse;whiteSpace=wrap;html=1;fillColor=none;" parent="1" vertex="1">
          <mxGeometry x="150" y="480" width="50" height="30" as="geometry" />
        </mxCell>
        <mxCell id="XwNhUvzAYBpl0VFSliFA-11" value="Contraseña" style="ellipse;whiteSpace=wrap;html=1;fillColor=none;" parent="1" vertex="1">
          <mxGeometry x="130" y="564" width="70" height="26" as="geometry" />
        </mxCell>
        <mxCell id="SnB1N_KesckS_-LBV5Pf-58" style="edgeStyle=orthogonalEdgeStyle;rounded=0;orthogonalLoop=1;jettySize=auto;html=1;exitX=0.5;exitY=1;exitDx=0;exitDy=0;" parent="1" edge="1">
          <mxGeometry relative="1" as="geometry">
            <mxPoint x="299.9999999999999" y="560" as="sourcePoint" />
            <mxPoint x="299.9999999999999" y="560" as="targetPoint" />
          </mxGeometry>
        </mxCell>
        <mxCell id="SnB1N_KesckS_-LBV5Pf-65" value="" style="endArrow=none;html=1;rounded=0;strokeWidth=1.5;strokeColor=#00ff00;jumpSize=6;endSize=6;" parent="1" edge="1">
          <mxGeometry width="50" height="50" relative="1" as="geometry">
            <mxPoint x="170" y="504" as="sourcePoint" />
            <mxPoint x="180" y="504" as="targetPoint" />
          </mxGeometry>
        </mxCell>
        <mxCell id="pcUj4MwKIDvx0GaRPvgX-3" value="&lt;i style=&quot;font-size: 20px;&quot;&gt;USUARIO&lt;/i&gt;" style="rounded=0;whiteSpace=wrap;html=1;fillColor=none;align=center;" parent="1" vertex="1">
          <mxGeometry x="241.25" y="510" width="160" height="78" as="geometry" />
        </mxCell>
        <mxCell id="XwNhUvzAYBpl0VFSliFA-16" value="" style="endArrow=none;html=1;rounded=0;entryX=1;entryY=0.5;entryDx=0;entryDy=0;exitX=0;exitY=0.25;exitDx=0;exitDy=0;" parent="1" source="pcUj4MwKIDvx0GaRPvgX-3" target="Xy_Kt93vGEhqBD_L53yG-1" edge="1">
          <mxGeometry width="50" height="50" relative="1" as="geometry">
            <mxPoint x="246.24" y="588" as="sourcePoint" />
            <mxPoint x="246.24" y="484" as="targetPoint" />
          </mxGeometry>
        </mxCell>
        <mxCell id="XwNhUvzAYBpl0VFSliFA-20" value="&lt;i style=&quot;font-size: 16px;&quot;&gt;PERFIL&lt;/i&gt;" style="rounded=0;whiteSpace=wrap;html=1;fillColor=none;align=center;" parent="1" vertex="1">
          <mxGeometry x="750" y="510" width="160" height="78" as="geometry" />
        </mxCell>
        <mxCell id="XwNhUvzAYBpl0VFSliFA-22" value="&lt;span style=&quot;font-size: 16px;&quot;&gt;&lt;i&gt;CREAN&lt;/i&gt;&lt;/span&gt;" style="html=1;whiteSpace=wrap;aspect=fixed;shape=isoRectangle;fillColor=none;" parent="1" vertex="1">
          <mxGeometry x="509" y="504" width="150.01" height="90" as="geometry" />
        </mxCell>
        <mxCell id="XwNhUvzAYBpl0VFSliFA-24" value="" style="endArrow=none;html=1;rounded=0;entryX=0;entryY=0.5;entryDx=0;entryDy=0;exitX=0.993;exitY=0.502;exitDx=0;exitDy=0;exitPerimeter=0;" parent="1" source="XwNhUvzAYBpl0VFSliFA-22" target="XwNhUvzAYBpl0VFSliFA-20" edge="1">
          <mxGeometry width="50" height="50" relative="1" as="geometry">
            <mxPoint x="660" y="549" as="sourcePoint" />
            <mxPoint x="728" y="559" as="targetPoint" />
            <Array as="points">
              <mxPoint x="710" y="550" />
            </Array>
          </mxGeometry>
        </mxCell>
        <mxCell id="XwNhUvzAYBpl0VFSliFA-27" value="(1, 1)" style="text;html=1;align=center;verticalAlign=middle;whiteSpace=wrap;rounded=0;" parent="1" vertex="1">
          <mxGeometry x="449" y="510" width="60" height="30" as="geometry" />
        </mxCell>
        <mxCell id="XwNhUvzAYBpl0VFSliFA-31" value="" style="endArrow=none;html=1;rounded=0;exitX=1;exitY=0.5;exitDx=0;exitDy=0;entryX=0.004;entryY=0.499;entryDx=0;entryDy=0;entryPerimeter=0;" parent="1" source="pcUj4MwKIDvx0GaRPvgX-3" target="XwNhUvzAYBpl0VFSliFA-22" edge="1">
          <mxGeometry width="50" height="50" relative="1" as="geometry">
            <mxPoint x="401" y="549" as="sourcePoint" />
            <mxPoint x="430" y="549" as="targetPoint" />
          </mxGeometry>
        </mxCell>
        <mxCell id="Xy_Kt93vGEhqBD_L53yG-2" value="Correo" style="ellipse;whiteSpace=wrap;html=1;fillColor=none;" parent="1" vertex="1">
          <mxGeometry x="150" y="524" width="50" height="26" as="geometry" />
        </mxCell>
        <mxCell id="Xy_Kt93vGEhqBD_L53yG-3" value="" style="endArrow=none;html=1;rounded=0;entryX=1;entryY=0.5;entryDx=0;entryDy=0;exitX=0;exitY=0.75;exitDx=0;exitDy=0;" parent="1" source="pcUj4MwKIDvx0GaRPvgX-3" target="XwNhUvzAYBpl0VFSliFA-11" edge="1">
          <mxGeometry width="50" height="50" relative="1" as="geometry">
            <mxPoint x="240" y="565" as="sourcePoint" />
            <mxPoint x="210" y="549" as="targetPoint" />
          </mxGeometry>
        </mxCell>
        <mxCell id="Xy_Kt93vGEhqBD_L53yG-4" value="" style="endArrow=none;html=1;rounded=0;entryX=1;entryY=0.5;entryDx=0;entryDy=0;exitX=0;exitY=0.5;exitDx=0;exitDy=0;" parent="1" source="pcUj4MwKIDvx0GaRPvgX-3" target="Xy_Kt93vGEhqBD_L53yG-2" edge="1">
          <mxGeometry width="50" height="50" relative="1" as="geometry">
            <mxPoint x="250" y="575" as="sourcePoint" />
            <mxPoint x="210" y="589" as="targetPoint" />
          </mxGeometry>
        </mxCell>
        <mxCell id="Xy_Kt93vGEhqBD_L53yG-5" value="ImagenPerfil" style="ellipse;whiteSpace=wrap;html=1;fillColor=none;" parent="1" vertex="1">
          <mxGeometry x="120" y="610" width="80" height="30" as="geometry" />
        </mxCell>
        <mxCell id="Xy_Kt93vGEhqBD_L53yG-6" value="" style="endArrow=none;html=1;rounded=0;entryX=1;entryY=0;entryDx=0;entryDy=0;exitX=0;exitY=1;exitDx=0;exitDy=0;" parent="1" source="pcUj4MwKIDvx0GaRPvgX-3" target="Xy_Kt93vGEhqBD_L53yG-5" edge="1">
          <mxGeometry width="50" height="50" relative="1" as="geometry">
            <mxPoint x="251" y="579" as="sourcePoint" />
            <mxPoint x="210" y="587" as="targetPoint" />
          </mxGeometry>
        </mxCell>
        <mxCell id="Xy_Kt93vGEhqBD_L53yG-7" value="(0, 1)" style="text;html=1;align=center;verticalAlign=middle;whiteSpace=wrap;rounded=0;" parent="1" vertex="1">
          <mxGeometry x="70" y="610" width="60" height="30" as="geometry" />
        </mxCell>
        <mxCell id="jjyvyoVuMIes-spuAeXh-1" value="(1, 1)" style="text;html=1;align=center;verticalAlign=middle;whiteSpace=wrap;rounded=0;" parent="1" vertex="1">
          <mxGeometry x="659.01" y="510" width="60" height="30" as="geometry" />
        </mxCell>
        <mxCell id="yTSjlXrY0dPMjYInfQWD-1" value="&lt;b style=&quot;font-size: 18px;&quot;&gt;1:1&lt;/b&gt;" style="text;html=1;align=center;verticalAlign=middle;whiteSpace=wrap;rounded=0;fontSize=18;" parent="1" vertex="1">
          <mxGeometry x="558" y="480" width="53.33" height="23.5" as="geometry" />
        </mxCell>
        <mxCell id="yTSjlXrY0dPMjYInfQWD-2" value="&lt;span style=&quot;font-size: 16px;&quot;&gt;&lt;i&gt;SEGUIR&lt;/i&gt;&lt;/span&gt;" style="html=1;whiteSpace=wrap;aspect=fixed;shape=isoRectangle;fillColor=none;" parent="1" vertex="1">
          <mxGeometry x="509" y="665" width="150.01" height="90" as="geometry" />
        </mxCell>
        <mxCell id="yTSjlXrY0dPMjYInfQWD-3" value="" style="endArrow=none;html=1;rounded=0;exitX=0.75;exitY=1;exitDx=0;exitDy=0;entryX=0.004;entryY=0.501;entryDx=0;entryDy=0;entryPerimeter=0;" parent="1" source="pcUj4MwKIDvx0GaRPvgX-3" target="yTSjlXrY0dPMjYInfQWD-2" edge="1">
          <mxGeometry width="50" height="50" relative="1" as="geometry">
            <mxPoint x="411" y="559" as="sourcePoint" />
            <mxPoint x="500" y="730" as="targetPoint" />
            <Array as="points">
              <mxPoint x="360" y="710" />
            </Array>
          </mxGeometry>
        </mxCell>
        <mxCell id="yTSjlXrY0dPMjYInfQWD-5" value="" style="endArrow=none;html=1;rounded=0;exitX=0.5;exitY=1;exitDx=0;exitDy=0;entryX=0.992;entryY=0.499;entryDx=0;entryDy=0;entryPerimeter=0;" parent="1" source="XwNhUvzAYBpl0VFSliFA-20" target="yTSjlXrY0dPMjYInfQWD-2" edge="1">
          <mxGeometry width="50" height="50" relative="1" as="geometry">
            <mxPoint x="840" y="594" as="sourcePoint" />
            <mxPoint x="660" y="710" as="targetPoint" />
            <Array as="points">
              <mxPoint x="830" y="710" />
            </Array>
          </mxGeometry>
        </mxCell>
        <mxCell id="yTSjlXrY0dPMjYInfQWD-9" value="(0, n)" style="text;html=1;align=center;verticalAlign=middle;whiteSpace=wrap;rounded=0;" parent="1" vertex="1">
          <mxGeometry x="449" y="665" width="60" height="30" as="geometry" />
        </mxCell>
        <mxCell id="yTSjlXrY0dPMjYInfQWD-10" value="(0, n)" style="text;html=1;align=center;verticalAlign=middle;whiteSpace=wrap;rounded=0;" parent="1" vertex="1">
          <mxGeometry x="670" y="665" width="60" height="30" as="geometry" />
        </mxCell>
        <mxCell id="yTSjlXrY0dPMjYInfQWD-11" value="&lt;b style=&quot;font-size: 18px;&quot;&gt;N:M&lt;/b&gt;" style="text;html=1;align=center;verticalAlign=middle;whiteSpace=wrap;rounded=0;fontSize=18;" parent="1" vertex="1">
          <mxGeometry x="558" y="630" width="53.33" height="33.5" as="geometry" />
        </mxCell>
        <mxCell id="yTSjlXrY0dPMjYInfQWD-13" value="&lt;span style=&quot;font-size: 16px;&quot;&gt;&lt;i&gt;SUBIR&lt;/i&gt;&lt;/span&gt;" style="html=1;whiteSpace=wrap;aspect=fixed;shape=isoRectangle;fillColor=none;" parent="1" vertex="1">
          <mxGeometry x="286.26" y="356.75" width="150.01" height="90" as="geometry" />
        </mxCell>
        <mxCell id="yTSjlXrY0dPMjYInfQWD-14" value="" style="endArrow=none;html=1;rounded=0;entryX=0.5;entryY=0.981;entryDx=0;entryDy=0;entryPerimeter=0;exitX=0.75;exitY=0;exitDx=0;exitDy=0;" parent="1" source="pcUj4MwKIDvx0GaRPvgX-3" target="yTSjlXrY0dPMjYInfQWD-13" edge="1">
          <mxGeometry width="50" height="50" relative="1" as="geometry">
            <mxPoint x="321" y="500" as="sourcePoint" />
            <mxPoint x="520" y="559" as="targetPoint" />
          </mxGeometry>
        </mxCell>
        <mxCell id="yTSjlXrY0dPMjYInfQWD-16" value="&lt;i style=&quot;font-size: 20px;&quot;&gt;POST&lt;/i&gt;" style="rounded=0;whiteSpace=wrap;html=1;fillColor=none;align=center;" parent="1" vertex="1">
          <mxGeometry x="281.26" y="240" width="160" height="78" as="geometry" />
        </mxCell>
        <mxCell id="yTSjlXrY0dPMjYInfQWD-18" value="" style="endArrow=none;html=1;rounded=0;exitX=0.5;exitY=1;exitDx=0;exitDy=0;entryX=0.5;entryY=0.022;entryDx=0;entryDy=0;entryPerimeter=0;" parent="1" source="yTSjlXrY0dPMjYInfQWD-16" target="yTSjlXrY0dPMjYInfQWD-13" edge="1">
          <mxGeometry width="50" height="50" relative="1" as="geometry">
            <mxPoint x="411" y="559" as="sourcePoint" />
            <mxPoint x="520" y="559" as="targetPoint" />
          </mxGeometry>
        </mxCell>
        <mxCell id="rc4LEQ3Vn2YxajYF0bmL-1" value="Imagenes" style="ellipse;whiteSpace=wrap;html=1;fillColor=none;" vertex="1" parent="1">
          <mxGeometry x="321.25" y="190" width="80" height="20" as="geometry" />
        </mxCell>
        <mxCell id="rc4LEQ3Vn2YxajYF0bmL-2" value="Descripcion" style="ellipse;whiteSpace=wrap;html=1;fillColor=none;" vertex="1" parent="1">
          <mxGeometry x="220" y="190" width="80" height="20" as="geometry" />
        </mxCell>
        <mxCell id="rc4LEQ3Vn2YxajYF0bmL-3" value="FechaCreacion" style="ellipse;whiteSpace=wrap;html=1;fillColor=none;" vertex="1" parent="1">
          <mxGeometry x="420" y="185" width="100" height="30" as="geometry" />
        </mxCell>
        <mxCell id="rc4LEQ3Vn2YxajYF0bmL-4" value="(0, 1)" style="text;html=1;align=center;verticalAlign=middle;whiteSpace=wrap;rounded=0;" vertex="1" parent="1">
          <mxGeometry x="226.26" y="160" width="60" height="30" as="geometry" />
        </mxCell>
        <mxCell id="rc4LEQ3Vn2YxajYF0bmL-5" value="(0, 10)" style="text;html=1;align=center;verticalAlign=middle;whiteSpace=wrap;rounded=0;" vertex="1" parent="1">
          <mxGeometry x="330" y="160" width="60" height="30" as="geometry" />
        </mxCell>
        <mxCell id="rc4LEQ3Vn2YxajYF0bmL-6" value="" style="endArrow=none;html=1;rounded=0;exitX=0.75;exitY=0;exitDx=0;exitDy=0;entryX=0.5;entryY=1;entryDx=0;entryDy=0;" edge="1" parent="1" source="yTSjlXrY0dPMjYInfQWD-16" target="rc4LEQ3Vn2YxajYF0bmL-3">
          <mxGeometry width="50" height="50" relative="1" as="geometry">
            <mxPoint x="411" y="559" as="sourcePoint" />
            <mxPoint x="520" y="559" as="targetPoint" />
          </mxGeometry>
        </mxCell>
        <mxCell id="rc4LEQ3Vn2YxajYF0bmL-8" value="" style="endArrow=none;html=1;rounded=0;exitX=0.5;exitY=0;exitDx=0;exitDy=0;entryX=0.5;entryY=1;entryDx=0;entryDy=0;" edge="1" parent="1" source="yTSjlXrY0dPMjYInfQWD-16" target="rc4LEQ3Vn2YxajYF0bmL-1">
          <mxGeometry width="50" height="50" relative="1" as="geometry">
            <mxPoint x="371" y="250" as="sourcePoint" />
            <mxPoint x="450" y="225" as="targetPoint" />
          </mxGeometry>
        </mxCell>
        <mxCell id="rc4LEQ3Vn2YxajYF0bmL-10" value="" style="endArrow=none;html=1;rounded=0;entryX=0.5;entryY=1;entryDx=0;entryDy=0;exitX=0.25;exitY=0;exitDx=0;exitDy=0;" edge="1" parent="1" source="yTSjlXrY0dPMjYInfQWD-16" target="rc4LEQ3Vn2YxajYF0bmL-2">
          <mxGeometry width="50" height="50" relative="1" as="geometry">
            <mxPoint x="270" y="230" as="sourcePoint" />
            <mxPoint x="331" y="220" as="targetPoint" />
          </mxGeometry>
        </mxCell>
        <mxCell id="rc4LEQ3Vn2YxajYF0bmL-11" value="(0, n)" style="text;html=1;align=center;verticalAlign=middle;whiteSpace=wrap;rounded=0;" vertex="1" parent="1">
          <mxGeometry x="360" y="440" width="60" height="30" as="geometry" />
        </mxCell>
        <mxCell id="rc4LEQ3Vn2YxajYF0bmL-12" value="(1, 1)" style="text;html=1;align=center;verticalAlign=middle;whiteSpace=wrap;rounded=0;" vertex="1" parent="1">
          <mxGeometry x="360" y="326.75" width="60" height="30" as="geometry" />
        </mxCell>
        <mxCell id="rc4LEQ3Vn2YxajYF0bmL-13" value="&lt;b style=&quot;font-size: 18px;&quot;&gt;N:1&lt;/b&gt;" style="text;html=1;align=center;verticalAlign=middle;whiteSpace=wrap;rounded=0;fontSize=18;" vertex="1" parent="1">
          <mxGeometry x="430" y="390" width="53.33" height="23.5" as="geometry" />
        </mxCell>
        <mxCell id="rc4LEQ3Vn2YxajYF0bmL-14" value="&lt;span style=&quot;font-size: 16px;&quot;&gt;&lt;i&gt;COMENTAR&lt;/i&gt;&lt;/span&gt;" style="html=1;whiteSpace=wrap;aspect=fixed;shape=isoRectangle;fillColor=none;" vertex="1" parent="1">
          <mxGeometry x="206" y="715" width="150.01" height="90" as="geometry" />
        </mxCell>
        <mxCell id="rc4LEQ3Vn2YxajYF0bmL-15" value="" style="endArrow=none;html=1;rounded=0;exitX=0.25;exitY=1;exitDx=0;exitDy=0;entryX=0.5;entryY=0.021;entryDx=0;entryDy=0;entryPerimeter=0;" edge="1" parent="1" source="pcUj4MwKIDvx0GaRPvgX-3" target="rc4LEQ3Vn2YxajYF0bmL-14">
          <mxGeometry width="50" height="50" relative="1" as="geometry">
            <mxPoint x="411" y="559" as="sourcePoint" />
            <mxPoint x="281" y="700" as="targetPoint" />
          </mxGeometry>
        </mxCell>
        <mxCell id="rc4LEQ3Vn2YxajYF0bmL-17" value="" style="endArrow=none;html=1;rounded=0;entryX=0.001;entryY=0.501;entryDx=0;entryDy=0;entryPerimeter=0;exitX=0;exitY=0.5;exitDx=0;exitDy=0;" edge="1" parent="1" source="yTSjlXrY0dPMjYInfQWD-16" target="rc4LEQ3Vn2YxajYF0bmL-14">
          <mxGeometry width="50" height="50" relative="1" as="geometry">
            <mxPoint x="280" y="440" as="sourcePoint" />
            <mxPoint x="200" y="760" as="targetPoint" />
            <Array as="points">
              <mxPoint x="30" y="279" />
              <mxPoint x="30" y="760" />
            </Array>
          </mxGeometry>
        </mxCell>
        <mxCell id="rc4LEQ3Vn2YxajYF0bmL-18" value="(1, n)" style="text;html=1;align=center;verticalAlign=middle;whiteSpace=wrap;rounded=0;" vertex="1" parent="1">
          <mxGeometry x="281.26" y="695" width="60" height="30" as="geometry" />
        </mxCell>
        <mxCell id="rc4LEQ3Vn2YxajYF0bmL-20" value="(0, n)" style="text;html=1;align=center;verticalAlign=middle;whiteSpace=wrap;rounded=0;" vertex="1" parent="1">
          <mxGeometry x="181.25" y="775" width="60" height="30" as="geometry" />
        </mxCell>
        <mxCell id="rc4LEQ3Vn2YxajYF0bmL-21" value="&lt;b&gt;N:M&lt;/b&gt;" style="text;html=1;align=center;verticalAlign=middle;whiteSpace=wrap;rounded=0;fontSize=18;" vertex="1" parent="1">
          <mxGeometry x="356.01" y="748.25" width="53.33" height="23.5" as="geometry" />
        </mxCell>
        <mxCell id="rc4LEQ3Vn2YxajYF0bmL-22" value="ID" style="ellipse;whiteSpace=wrap;html=1;fillColor=none;" vertex="1" parent="1">
          <mxGeometry x="815" y="460" width="30" height="20" as="geometry" />
        </mxCell>
        <mxCell id="rc4LEQ3Vn2YxajYF0bmL-23" value="" style="endArrow=none;html=1;rounded=0;entryX=0.5;entryY=0;entryDx=0;entryDy=0;exitX=0.5;exitY=1;exitDx=0;exitDy=0;" edge="1" parent="1" source="rc4LEQ3Vn2YxajYF0bmL-22" target="XwNhUvzAYBpl0VFSliFA-20">
          <mxGeometry width="50" height="50" relative="1" as="geometry">
            <mxPoint x="371" y="520" as="sourcePoint" />
            <mxPoint x="371" y="455" as="targetPoint" />
          </mxGeometry>
        </mxCell>
        <mxCell id="rc4LEQ3Vn2YxajYF0bmL-24" value="" style="endArrow=none;html=1;rounded=0;strokeWidth=1.5;strokeColor=#00ff00;jumpSize=6;endSize=6;" edge="1" parent="1">
          <mxGeometry width="50" height="50" relative="1" as="geometry">
            <mxPoint x="825" y="476" as="sourcePoint" />
            <mxPoint x="835" y="476" as="targetPoint" />
          </mxGeometry>
        </mxCell>
      </root>
    </mxGraphModel>
  </diagram>
</mxfile>
